<?xml version="1.0" encoding="utf-8"?>
<!-- Generator: Adobe Illustrator 19.0.0, SVG Export Plug-In . SVG Version: 6.00 Build 0)  -->
<svg version="1.1" id="Triangle" xmlns="http://www.w3.org/2000/svg" xmlns:xlink="http://www.w3.org/1999/xlink" x="0px" y="0px"
	 viewBox="-38 97.5 829.7 518.5" style="enable-background:new -38 97.5 829.7 518.5;" xml:space="preserve">
<style type="text/css">
	.st0{fill:#231F20;stroke:#FFFFFF;stroke-miterlimit:10;}
	.st1{fill:#231F20;stroke:#FFFFFF;stroke-miterlimit:10;stroke-dasharray:12.01,12.01;}
	.st2{fill:#231F20;stroke:#FFFFFF;stroke-miterlimit:10;stroke-dasharray:12.35,12.35;}
	.st3{fill:#231F20;stroke:#FFFFFF;stroke-miterlimit:10;stroke-dasharray:11.85,11.85;}
	.st4{fill:#231F20;stroke:#FFFFFF;stroke-miterlimit:10;stroke-dasharray:12.28,12.28;}
	.st5{fill:#231F20;stroke:#FFFFFF;stroke-miterlimit:10;stroke-dasharray:12.51,12.51;}
	.st6{fill:#231F20;}
	.st7{font-family:'OpenSans-Bold';}
	.st8{font-size:24px;}
	.st9{fill:#231F20;stroke:#FFFFFF;stroke-width:3;stroke-miterlimit:10;}
	.st10{fill:#FFFFFF;stroke:#231F20;stroke-width:2;stroke-miterlimit:10;}
</style>
<title>itcss-layers1</title>
<line class="st0" x1="507.9" y1="221" x2="513.9" y2="221"/>
<line class="st1" x1="525.9" y1="221" x2="760.2" y2="221"/>
<line class="st0" x1="766.2" y1="221" x2="772.2" y2="221"/>
<line class="st0" x1="471.8" y1="283.5" x2="477.8" y2="283.5"/>
<line class="st2" x1="490.2" y1="283.5" x2="755.6" y2="283.5"/>
<line class="st0" x1="761.8" y1="283.5" x2="767.8" y2="283.5"/>
<line class="st0" x1="435.7" y1="346" x2="441.7" y2="346"/>
<line class="st3" x1="463.6" y1="346" x2="765.9" y2="346"/>
<line class="st0" x1="761.8" y1="346" x2="767.8" y2="346"/>
<line class="st0" x1="399.6" y1="408.5" x2="405.6" y2="408.5"/>
<line class="st4" x1="417.9" y1="408.5" x2="755.6" y2="408.5"/>
<line class="st0" x1="761.8" y1="408.5" x2="767.8" y2="408.5"/>
<line class="st0" x1="761.8" y1="471" x2="767.8" y2="471"/>
<line class="st0" x1="761.8" y1="533.5" x2="767.8" y2="533.5"/>
<line class="st0" x1="766.2" y1="595" x2="772.2" y2="595"/>
<line class="st0" x1="543.1" y1="160" x2="549.1" y2="160"/>
<line class="st5" x1="561.6" y1="160" x2="755.5" y2="160"/>
<line class="st0" x1="761.8" y1="160" x2="767.8" y2="160"/>
<text transform="matrix(1 0 0 1 631.41 572.46)" class="st6 st7 st8">TRUMPS</text>
<text transform="matrix(1 0 0 1 558.78 511.06)" class="st6 st7 st8">COMPONENTS</text>
<text transform="matrix(1 0 0 1 651.96 262.46)" class="st6 st7 st8">TOOLS</text>
<text transform="matrix(1 0 0 1 627.91 325.86)" class="st6 st7 st8">GENERIC</text>
<text transform="matrix(1 0 0 1 607.48 387.26)" class="st6 st7 st8">ELEMENTS</text>
<text transform="matrix(1 0 0 1 631.6899 448.66)" class="st6 st7 st8">OBJECTS</text>
<text transform="matrix(1 0 0 1 616.84 203.06)" class="st6 st7 st8">SETTINGS</text>
<polygon class="st9" points="268.9,595 18.9,162 518.9,162 "/>
<line class="st9" x1="54.1" y1="223" x2="483.7" y2="223"/>
<line class="st10" x1="35.1" y1="130.5" x2="211.2" y2="130.5"/>
<polygon class="st6" points="39.1,136.3 17.4,130.5 39.1,124.7 "/>
<line class="st10" x1="-18" y1="177.3" x2="59.7" y2="311.9"/>
<line class="st10" x1="208.6" y1="579.7" x2="141.3" y2="463.1"/>
<polygon class="st6" points="211.6,573.3 217.4,595 201.6,579.1 "/>
<line class="st10" x1="317.8" y1="579.7" x2="381.4" y2="469.5"/>
<polygon class="st6" points="324.9,579.1 309,595 314.8,573.3 "/>
<line class="st10" x1="549.1" y1="178.3" x2="478.8" y2="300.1"/>
<line class="st10" x1="501.2" y1="130.5" x2="329.4" y2="130.5"/>
<polygon class="st6" points="497.2,124.7 518.9,130.5 497.2,136.3 "/>
<line class="st9" x1="89.8" y1="285.5" x2="447.6" y2="285.5"/>
<line class="st9" x1="126.3" y1="348" x2="411.5" y2="348"/>
<line class="st9" x1="162.4" y1="410.5" x2="375.4" y2="410.5"/>
<line class="st9" x1="198.4" y1="473" x2="339.3" y2="473"/>
<line class="st9" x1="233.7" y1="535.5" x2="303.2" y2="535.5"/>
<text transform="matrix(1 0 0 1 228.49 137.26)" class="st6 st7 st8">REACH</text>
<text transform="matrix(0.4807 -0.8769 0.8769 0.4807 398.4802 461.0009)" class="st6 st7 st8">EXPLICITNESS</text>
<text transform="matrix(0.4909 0.8712 -0.8712 0.4909 59.7098 330.9901)" class="st6 st7 st8">SPECIFICITY</text>
<line class="st3" x1="411.5" y1="473" x2="735.9" y2="473"/>
<line class="st4" x1="367" y1="535.5" x2="733.6" y2="535.5"/>
</svg>
