<?xml version="1.0" encoding="utf-8"?>
<!-- Generator: Adobe Illustrator 19.0.0, SVG Export Plug-In . SVG Version: 6.00 Build 0)  -->
<svg version="1.1" id="Layer_1" xmlns="http://www.w3.org/2000/svg" xmlns:xlink="http://www.w3.org/1999/xlink" x="0px" y="0px"
	 viewBox="-128 57 584.8 481.3" style="enable-background:new -128 57 584.8 481.3;" xml:space="preserve">
<style type="text/css">
	.st0{fill:#FFFFFF;stroke:#000000;stroke-width:3;stroke-miterlimit:10;}
	.st1{fill:none;stroke:#000000;stroke-width:3;stroke-miterlimit:10;}
	.st2{fill:none;stroke:#FFFFFF;stroke-width:2;stroke-miterlimit:10;}
	.st3{fill:#FFFFFF;}
	.st4{font-family:'OpenSans-Bold';}
	.st5{font-size:24px;}
</style>
<title>itcss-key-metrics</title>
<polygon class="st0" points="167.8,535.3 -82.2,102.3 417.8,102.3 "/>
<line class="st1" x1="-47" y1="163.3" x2="382.5" y2="163.3"/>
<line class="st2" x1="-66" y1="70.8" x2="110" y2="70.8"/>
<polygon class="st3" points="-62.1,76.6 -83.8,70.8 -62.1,65 "/>
<line class="st2" x1="-119.1" y1="117.6" x2="-41.4" y2="252.2"/>
<line class="st2" x1="107.4" y1="519.9" x2="40.2" y2="403.4"/>
<polygon class="st3" points="110.5,513.6 116.3,535.3 100.4,519.4 "/>
<line class="st2" x1="216.7" y1="519.9" x2="280.3" y2="409.8"/>
<polygon class="st3" points="223.7,519.4 207.8,535.3 213.6,513.6 "/>
<line class="st2" x1="448" y1="118.6" x2="377.6" y2="240.4"/>
<line class="st2" x1="400" y1="70.8" x2="228.2" y2="70.8"/>
<polygon class="st3" points="396.1,65 417.8,70.8 396.1,76.6 "/>
<line class="st1" x1="-11.4" y1="225.8" x2="346.5" y2="225.8"/>
<line class="st1" x1="25.1" y1="288.3" x2="310.4" y2="288.3"/>
<line class="st1" x1="61.2" y1="350.8" x2="274.3" y2="350.8"/>
<line class="st1" x1="97.3" y1="413.3" x2="238.2" y2="413.3"/>
<line class="st1" x1="132.6" y1="475.8" x2="202.1" y2="475.8"/>
<text transform="matrix(1 0 0 1 127.35 77.54)" class="st3 st4 st5">REACH</text>
<text transform="matrix(0.4807 -0.8769 0.8769 0.4807 297.3401 401.2799)" class="st3 st4 st5">EXPLICITNESS</text>
<text transform="matrix(0.4909 0.8712 -0.8712 0.4909 -41.4295 271.2699)" class="st3 st4 st5">SPECIFICITY</text>
</svg>
